# xmcd CD database file
#
# Track frame offsets:
#	150
#	42781
#	62756
#	87182
#	114934
#	148498
#	180652
#	203655
#	232049
#	256665
#	276134
#	288800
#
# Disc length: 4256 seconds
#
# Revision: 0
# Processed by: cddbd v1.5.2PL0 Copyright (c) Steve Scherf et al.
# Submitted via: CDex 1.70beta2
#
DISCID=a7109e0c
DTITLE=Various Artist - 夕暮ジャズ  RELAX-063
DYEAR=2014
DGENRE=Jazz
TTITLE0=Flamenco Sketches
TTITLE1=Naima
TTITLE2=Blue In Green
TTITLE3=Violets For Your Furs
TTITLE4=Come Rain Or Come Shine
TTITLE5=I Remember Clifford
TTITLE6=Spring Is Here
TTITLE7=Something I Dreamed Last Night
TTITLE8=It Never Entered My Mind
TTITLE9=Little Girl Blue
TTITLE10=Misty
TTITLE11=Peace Piece
EXTD=YEAR: 2014
EXTT0=
EXTT1=
EXTT2=
EXTT3=
EXTT4=
EXTT5=
EXTT6=
EXTT7=
EXTT8=
EXTT9=
EXTT10=
EXTT11=
PLAYORDER=
